<?xml version="1.0" standalone="no"?><!DOCTYPE svg PUBLIC "-//W3C//DTD SVG 1.1//EN" "http://www.w3.org/Graphics/SVG/1.1/DTD/svg11.dtd"><svg t="1737879482759" class="icon" viewBox="0 0 1024 1024" version="1.1" xmlns="http://www.w3.org/2000/svg" p-id="1499" xmlns:xlink="http://www.w3.org/1999/xlink" width="200" height="200"><path d="M725.333333 469.333333c129.6 0 234.666667 105.066667 234.666667 234.666667s-105.066667 234.666667-234.666667 234.666667-234.666667-105.066667-234.666666-234.666667 105.066667-234.666667 234.666666-234.666667z m85.333334-341.333333a170.666667 170.666667 0 0 1 170.581333 165.333333L981.333333 298.666667v251.434666a300.224 300.224 0 0 0-85.312-91.221333L896 298.666667a85.333333 85.333333 0 0 0-81.066667-85.226667L810.666667 213.333333H213.333333a85.333333 85.333333 0 0 0-85.226666 81.066667L128 298.666667v317.930666l169.898667-154.517333a42.666667 42.666667 0 0 1 56.554666-0.746667l99.818667 86.037334 180.501333-184.533334a42.666667 42.666667 0 0 1 56.746667-3.818666l60.928 47.530666A302.464 302.464 0 0 0 725.333333 405.333333c-143.466667 0-263.317333 101.162667-292.096 236.053334a36.16 36.16 0 0 1-4.309333-3.2l-101.568-87.552L128.234667 731.733333a85.333333 85.333333 0 0 0 80.768 78.826667L213.333333 810.666667h232.96a298.453333 298.453333 0 0 0 50.282667 85.354666L213.333333 896a170.666667 170.666667 0 0 1-170.581333-165.333333L42.666667 725.333333V298.666667a170.666667 170.666667 0 0 1 165.333333-170.581334L213.333333 128h597.333334z m-76.8 661.333333h-17.066667a21.333333 21.333333 0 0 0-21.333333 21.333334v17.066666a21.333333 21.333333 0 0 0 21.333333 21.333334h17.066667a21.333333 21.333333 0 0 0 21.333333-21.333334V810.666667a21.333333 21.333333 0 0 0-21.333333-21.333334z m0-234.666666h-17.066667a21.333333 21.333333 0 0 0-21.184 18.837333L695.466667 576v149.333333a21.333333 21.333333 0 0 0 18.837333 21.184L716.8 746.666667h17.066667a21.333333 21.333333 0 0 0 21.184-18.837334L755.2 725.333333v-149.333333a21.333333 21.333333 0 0 0-21.333333-21.333333zM234.666667 277.333333a42.666667 42.666667 0 1 1 0 85.333334 42.666667 42.666667 0 0 1 0-85.333334z" fill="#8a8a8a" p-id="1500"></path></svg>